<svg width="500" height="500" viewBox="0 0 500 500" fill="none" xmlns="http://www.w3.org/2000/svg">
<rect width="500" height="500" fill="#25B894"/>
<path fill-rule="evenodd" clip-rule="evenodd" d="M159 256.863L167.088 256.869L291.512 132.445L291.504 124.359L323.883 156.738L315.795 156.73L191.372 281.153L191.379 289.242L159 256.863ZM270.868 116.986L250.656 137.198L236.057 122.599L204.615 154.041L219.214 168.64L199.002 188.852L171.258 161.107V146.968L228.984 89.2422H243.127L270.868 116.986ZM331.256 177.374L311.044 197.587L325.643 212.186L294.201 243.627L279.602 229.028L259.39 249.241L287.135 276.984H301.274L359 219.258V205.116L331.256 177.374Z" fill="white"/>
<path fill-rule="evenodd" clip-rule="evenodd" d="M50 333.395H110.72V345.539H50V333.395Z" fill="white"/>
<path d="M398.368 347.816H366.49V359.96H398.368V347.816Z" fill="white"/>
<path d="M87.9564 344.781H72.7764V394.117H87.9564V344.781Z" fill="white"/>
<path d="M128.934 333.395H115.271V394.115H128.934V333.395Z" fill="white"/>
<path d="M235.951 347.816H223.048V394.116H235.951V347.816Z" fill="white"/>
<path d="M308.061 333.395H294.399V394.115H308.061V333.395Z" fill="white"/>
<path d="M385.48 333.395V380.453C385.48 380.872 385.82 381.212 386.239 381.212H398.383V394.874H386.239C378.275 394.874 371.818 388.417 371.818 380.453V333.395H385.48Z" fill="white"/>
<path d="M141.841 347.438C152.111 347.438 160.436 355.763 160.436 366.033V394.116H147.533V366.033C147.533 362.889 144.985 360.341 141.841 360.341H122.866V347.438H141.841Z" fill="white"/>
<path d="M200.667 347.438C209.47 347.438 216.606 354.574 216.606 363.377V378.557C216.606 387.36 209.47 394.496 200.667 394.496H183.21C174.407 394.496 167.271 387.36 167.271 378.557V363.377C167.271 354.574 174.407 347.438 183.21 347.438H200.667ZM200.667 359.582H183.21C181.114 359.582 179.415 361.281 179.415 363.377V378.557C179.415 380.653 181.114 382.352 183.21 382.352H200.667C202.763 382.352 204.462 380.653 204.462 378.557V363.377C204.462 361.281 202.763 359.582 200.667 359.582Z" fill="white"/>
<path d="M259.098 347.438V359.582H249.231C241.686 359.582 235.569 365.698 235.569 373.244V394.496H223.425V373.244C223.425 358.991 234.979 347.438 249.231 347.438H259.098Z" fill="white"/>
<path d="M295.918 347.816V359.96H278.729C276.866 359.96 275.425 361.36 275.425 362.996V378.936C275.425 380.572 276.866 381.972 278.729 381.972H295.918V394.116H278.729C270.236 394.116 263.281 387.359 263.281 378.936V362.996C263.281 354.573 270.236 347.816 278.729 347.816H295.918Z" fill="white"/>
<path d="M349.045 347.816C355.752 347.816 361.189 353.253 361.189 359.96V394.116H349.045V359.96H328.552C328.132 359.96 327.792 360.3 327.792 360.719H315.648C315.648 353.593 321.425 347.816 328.552 347.816H349.045Z" fill="white"/>
<path d="M437.856 347.816C444.563 347.816 450 353.253 450 359.96V394.116H437.856V359.96H417.363C416.944 359.96 416.604 360.3 416.604 360.719H404.46C404.46 353.593 410.237 347.816 417.363 347.816H437.856Z" fill="white"/>
<path d="M350.563 364.512C356.431 364.512 361.189 369.269 361.189 375.138V379.312C361.189 387.486 354.562 394.113 346.388 394.113H326.274C320.406 394.113 315.648 389.355 315.648 383.487V375.138C315.648 369.269 320.406 364.512 326.274 364.512H350.563ZM349.045 376.656H327.792V381.969H346.388C347.806 381.969 348.965 380.857 349.041 379.458L349.045 379.312V376.656Z" fill="white"/>
<path d="M439.374 364.512C445.243 364.512 450 369.269 450 375.138V379.312C450 387.486 443.374 394.113 435.2 394.113H415.086C409.217 394.113 404.46 389.355 404.46 383.487V375.138C404.46 369.269 409.217 364.512 415.086 364.512H439.374ZM437.856 376.656H416.604V381.969H435.2C436.618 381.969 437.777 380.857 437.852 379.458L437.856 379.312V376.656Z" fill="white"/>
</svg>
